{
	"asset": {
		"version": "2.0",
		"generator": "Blockbench 4.2.4 glTF exporter"
	},
	"scenes": [
		{
			"nodes": [
				8
			],
			"name": "blockbench_export"
		}
	],
	"scene": 0,
	"nodes": [
		{
			"name": "cube",
			"mesh": 0
		},
		{
			"name": "central_cube",
			"children": [
				0
			]
		},
		{
			"rotation": [
				0,
				0.3826834323650898,
				0,
				0.9238795325112867
			],
			"name": "torus",
			"mesh": 1
		},
		{
			"rotation": [
				0,
				0.3826834323650898,
				0,
				0.9238795325112867
			],
			"name": "cube",
			"mesh": 2
		},
		{
			"name": "orbit",
			"children": [
				3
			]
		},
		{
			"name": "ring",
			"children": [
				2,
				4
			]
		},
		{
			"rotation": [
				0.7069385089210124,
				0.0154254531387431,
				0.015425453138743099,
				0.7069385089210125
			],
			"translation": [
				1.0675221390626506e-18,
				0.0625,
				-2.935685882422289e-18
			],
			"name": "sphere",
			"mesh": 3
		},
		{
			"translation": [
				0,
				0.5,
				0
			],
			"name": "sphere",
			"children": [
				6
			]
		},
		{
			"children": [
				1,
				5,
				7
			]
		}
	],
	"bufferViews": [
		{
			"buffer": 0,
			"byteOffset": 0,
			"byteLength": 288,
			"target": 34962,
			"byteStride": 12
		},
		{
			"buffer": 0,
			"byteOffset": 288,
			"byteLength": 288,
			"target": 34962,
			"byteStride": 12
		},
		{
			"buffer": 0,
			"byteOffset": 576,
			"byteLength": 192,
			"target": 34962,
			"byteStride": 8
		},
		{
			"buffer": 0,
			"byteOffset": 768,
			"byteLength": 72,
			"target": 34963
		},
		{
			"buffer": 0,
			"byteOffset": 840,
			"byteLength": 768,
			"target": 34962,
			"byteStride": 12
		},
		{
			"buffer": 0,
			"byteOffset": 1608,
			"byteLength": 768,
			"target": 34962,
			"byteStride": 12
		},
		{
			"buffer": 0,
			"byteOffset": 2376,
			"byteLength": 512,
			"target": 34962,
			"byteStride": 8
		},
		{
			"buffer": 0,
			"byteOffset": 2888,
			"byteLength": 192,
			"target": 34963
		},
		{
			"buffer": 0,
			"byteOffset": 3080,
			"byteLength": 288,
			"target": 34962,
			"byteStride": 12
		},
		{
			"buffer": 0,
			"byteOffset": 3368,
			"byteLength": 288,
			"target": 34962,
			"byteStride": 12
		},
		{
			"buffer": 0,
			"byteOffset": 3656,
			"byteLength": 192,
			"target": 34962,
			"byteStride": 8
		},
		{
			"buffer": 0,
			"byteOffset": 3848,
			"byteLength": 72,
			"target": 34963
		},
		{
			"buffer": 0,
			"byteOffset": 3920,
			"byteLength": 1344,
			"target": 34962,
			"byteStride": 12
		},
		{
			"buffer": 0,
			"byteOffset": 5264,
			"byteLength": 1344,
			"target": 34962,
			"byteStride": 12
		},
		{
			"buffer": 0,
			"byteOffset": 6608,
			"byteLength": 896,
			"target": 34962,
			"byteStride": 8
		},
		{
			"buffer": 0,
			"byteOffset": 7504,
			"byteLength": 288,
			"target": 34963
		},
		{
			"buffer": 0,
			"byteOffset": 7792,
			"byteLength": 204
		},
		{
			"buffer": 0,
			"byteOffset": 7996,
			"byteLength": 612
		},
		{
			"buffer": 0,
			"byteOffset": 8608,
			"byteLength": 28
		},
		{
			"buffer": 0,
			"byteOffset": 8636,
			"byteLength": 112
		},
		{
			"buffer": 0,
			"byteOffset": 8748,
			"byteLength": 208
		},
		{
			"buffer": 0,
			"byteOffset": 8956,
			"byteLength": 624
		}
	],
	"buffers": [
		{
			"byteLength": 9580,
			"uri": "data:application/octet-stream;base64,"
		}
	],
	"accessors": [
		{
			"bufferView": 0,
			"componentType": 5126,
			"count": 24,
			"max": [
				0.0625,
				0.125,
				0.0625
			],
			"min": [
				-0.0625,
				0,
				-0.0625
			],
			"type": "VEC3"
		},
		{
			"bufferView": 1,
			"componentType": 5126,
			"count": 24,
			"max": [
				1,
				1,
				1
			],
			"min": [
				-1,
				-1,
				-1
			],
			"type": "VEC3"
		},
		{
			"bufferView": 2,
			"componentType": 5126,
			"count": 24,
			"max": [
				0.5,
				1
			],
			"min": [
				0,
				0.75
			],
			"type": "VEC2"
		},
		{
			"bufferView": 3,
			"componentType": 5123,
			"count": 36,
			"max": [
				23
			],
			"min": [
				0
			],
			"type": "SCALAR"
		},
		{
			"bufferView": 4,
			"componentType": 5126,
			"count": 64,
			"max": [
				0.3125,
				0.125,
				0.3125
			],
			"min": [
				-0.3125,
				0,
				-0.3125
			],
			"type": "VEC3"
		},
		{
			"bufferView": 5,
			"componentType": 5126,
			"count": 64,
			"max": [
				0.5773502588272095,
				0.5773502588272095,
				0.5773502588272095
			],
			"min": [
				-0.5773502588272095,
				-0.5773502588272095,
				-0.5773502588272095
			],
			"type": "VEC3"
		},
		{
			"bufferView": 6,
			"componentType": 5126,
			"count": 64,
			"max": [
				0.875,
				1
			],
			"min": [
				0,
				0.375
			],
			"type": "VEC2"
		},
		{
			"bufferView": 7,
			"componentType": 5123,
			"count": 96,
			"max": [
				63
			],
			"min": [
				0
			],
			"type": "SCALAR"
		},
		{
			"bufferView": 8,
			"componentType": 5126,
			"count": 24,
			"max": [
				0.0625,
				0.25,
				0.375
			],
			"min": [
				0,
				0.1875,
				0.3125
			],
			"type": "VEC3"
		},
		{
			"bufferView": 9,
			"componentType": 5126,
			"count": 24,
			"max": [
				1,
				1,
				1
			],
			"min": [
				-1,
				-1,
				-1
			],
			"type": "VEC3"
		},
		{
			"bufferView": 10,
			"componentType": 5126,
			"count": 24,
			"max": [
				0.0625,
				1
			],
			"min": [
				0,
				0.9375
			],
			"type": "VEC2"
		},
		{
			"bufferView": 11,
			"componentType": 5123,
			"count": 36,
			"max": [
				23
			],
			"min": [
				0
			],
			"type": "SCALAR"
		},
		{
			"bufferView": 12,
			"componentType": 5126,
			"count": 112,
			"max": [
				0.125,
				0.125,
				0.125
			],
			"min": [
				-0.125,
				-0.125,
				-0.125
			],
			"type": "VEC3"
		},
		{
			"bufferView": 13,
			"componentType": 5126,
			"count": 112,
			"max": [
				0.8628562092781067,
				0.9124869704246521,
				0.8628562092781067
			],
			"min": [
				-0.8628562092781067,
				-0.9124869704246521,
				-0.8628562092781067
			],
			"type": "VEC3"
		},
		{
			"bufferView": 14,
			"componentType": 5126,
			"count": 112,
			"max": [
				0.75,
				1
			],
			"min": [
				0,
				0.25
			],
			"type": "VEC2"
		},
		{
			"bufferView": 15,
			"componentType": 5123,
			"count": 144,
			"max": [
				111
			],
			"min": [
				0
			],
			"type": "SCALAR"
		},
		{
			"bufferView": 16,
			"componentType": 5126,
			"count": 51,
			"max": [
				3
			],
			"min": [
				0
			],
			"type": "SCALAR"
		},
		{
			"bufferView": 17,
			"componentType": 5126,
			"count": 51,
			"max": [
				0,
				0.25,
				0
			],
			"min": [
				0,
				0,
				0
			],
			"type": "VEC3"
		},
		{
			"bufferView": 18,
			"componentType": 5126,
			"count": 7,
			"max": [
				3
			],
			"min": [
				0
			],
			"type": "SCALAR"
		},
		{
			"bufferView": 19,
			"componentType": 5126,
			"count": 7,
			"max": [
				0,
				0,
				0,
				1
			],
			"min": [
				0,
				-0.8660253882408142,
				0,
				-1
			],
			"type": "VEC4"
		},
		{
			"bufferView": 20,
			"componentType": 5126,
			"count": 52,
			"max": [
				3
			],
			"min": [
				0
			],
			"type": "SCALAR"
		},
		{
			"bufferView": 21,
			"componentType": 5126,
			"count": 52,
			"max": [
				2.000551462173462,
				2.0053348541259766,
				2.000551462173462
			],
			"min": [
				0.7084508538246155,
				0.47021484375,
				0.7084508538246155
			],
			"type": "VEC3"
		}
	],
	"materials": [
		{
			"pbrMetallicRoughness": {
				"metallicFactor": 0,
				"roughnessFactor": 1,
				"baseColorTexture": {
					"index": 0
				}
			},
			"alphaMode": "MASK",
			"alphaCutoff": 0.05,
			"doubleSided": true
		},
		{
			"pbrMetallicRoughness": {
				"metallicFactor": 0,
				"roughnessFactor": 1,
				"baseColorTexture": {
					"index": 1
				}
			},
			"alphaMode": "MASK",
			"alphaCutoff": 0.05,
			"doubleSided": true
		},
		{
			"pbrMetallicRoughness": {
				"metallicFactor": 0,
				"roughnessFactor": 1,
				"baseColorTexture": {
					"index": 2
				}
			},
			"alphaMode": "MASK",
			"alphaCutoff": 0.05,
			"doubleSided": true
		}
	],
	"textures": [
		{
			"sampler": 0,
			"source": 0,
			"name": "cube_texture.png"
		},
		{
			"sampler": 1,
			"source": 1,
			"name": "torus_texture.png"
		},
		{
			"sampler": 2,
			"source": 2,
			"name": "sphere_texture.png"
		}
	],
	"samplers": [
		{
			"magFilter": 9728,
			"minFilter": 9728,
			"wrapS": 33071,
			"wrapT": 33071
		},
		{
			"magFilter": 9728,
			"minFilter": 9728,
			"wrapS": 33071,
			"wrapT": 33071
		},
		{
			"magFilter": 9728,
			"minFilter": 9728,
			"wrapS": 33071,
			"wrapT": 33071
		}
	],
	"images": [
		{
			"mimeType": "image/png",
			"uri": "data:image/png;base64,"
		},
		{
			"mimeType": "image/png",
			"uri": "data:image/png;base64,"
		},
		{
			"mimeType": "image/png",
			"uri": "data:image/png;base64,"
		}
	],
	"meshes": [
		{
			"primitives": [
				{
					"mode": 4,
					"attributes": {
						"POSITION": 0,
						"NORMAL": 1,
						"TEXCOORD_0": 2
					},
					"indices": 3,
					"material": 0
				}
			]
		},
		{
			"primitives": [
				{
					"mode": 4,
					"attributes": {
						"POSITION": 4,
						"NORMAL": 5,
						"TEXCOORD_0": 6
					},
					"indices": 7,
					"material": 1
				}
			]
		},
		{
			"primitives": [
				{
					"mode": 4,
					"attributes": {
						"POSITION": 8,
						"NORMAL": 9,
						"TEXCOORD_0": 10
					},
					"indices": 11,
					"material": 2
				}
			]
		},
		{
			"primitives": [
				{
					"mode": 4,
					"attributes": {
						"POSITION": 12,
						"NORMAL": 13,
						"TEXCOORD_0": 14
					},
					"indices": 15,
					"material": 2
				}
			]
		}
	],
	"animations": [
		{
			"name": "animation_test_loop",
			"samplers": [
				{
					"input": 16,
					"output": 17,
					"interpolation": "LINEAR"
				},
				{
					"input": 18,
					"output": 19,
					"interpolation": "LINEAR"
				},
				{
					"input": 20,
					"output": 21,
					"interpolation": "LINEAR"
				}
			],
			"channels": [
				{
					"sampler": 0,
					"target": {
						"node": 1,
						"path": "translation"
					}
				},
				{
					"sampler": 1,
					"target": {
						"node": 5,
						"path": "rotation"
					}
				},
				{
					"sampler": 2,
					"target": {
						"node": 7,
						"path": "scale"
					}
				}
			]
		}
	]
}